<svg xmlns="http://www.w3.org/2000/svg" width="583" height="800" fill="none"><path fill="#FFC24A" d="m.262 645.009 4.839-6.773 228.841-434.22.483-4.598L133.55 9.932c-8.456-15.872-32.251-11.858-35.022 5.91L.262 645.01Z"/><path fill="#FFA712" d="m3.118 639.845 3.658-7.136 226.446-429.671L132.595 12.782c-8.363-15.706-29.6-11.702-32.344 5.88L3.118 639.845Z"/><path fill="#FEA612" d="m3.118 639.845 3.658-7.136 226.446-429.671L132.595 12.782c-8.363-15.706-29.6-11.702-32.344 5.88L3.118 639.845Z"/><path fill="#F4BD62" d="m307.966 342.746 75.111-76.923-75.134-143.43c-7.132-13.577-27.045-13.618-34.101 0l-40.144 76.552v6.518l74.266 137.283h.002Z"/><path fill="#FFA50E" d="m306.626 339.542 73.023-74.785-73.023-139.048c-6.934-13.198-23.779-14.582-30.64-1.344l-40.353 77.741-1.208 3.975 72.201 133.461Z"/><path fill="#FEA612" d="m306.626 339.542 73.023-74.785-73.023-139.048c-6.934-13.198-23.779-14.582-30.64-1.344l-40.353 77.741-1.208 3.975 72.201 133.461Z"/><path fill="#F6820C" d="m.262 645.009 2.193-2.206 7.968-3.236 292.825-291.738 3.71-10.099-73.048-139.2L.262 645.009Z"/><path fill="#FDE068" d="M317.347 792.139 582.361 644.34l-75.678-466.086c-2.368-14.582-20.258-20.346-30.697-9.892L.262 645.009l263.494 147.119a54.995 54.995 0 0 0 53.591.011Z"/><path fill="#FCCA3F" d="m579.986 643.1-75.104-462.546c-2.348-14.473-17.226-20.461-27.585-10.083L3.202 644.103l260.602 145.659a54.576 54.576 0 0 0 53.183.013l263.002-146.678-.003.003Z"/></svg>